<svg xmlns="http://www.w3.org/2000/svg" data-name="Layer 1" width="128" viewBox="0 0 300 300"><path fill="none" stroke="#8599b6" stroke-linecap="round" stroke-linejoin="round" stroke-width="3" d="M97.25 36.89c.89 1.55 26.03-15.03 26.03-15.03S86.24 49.69 86.26 49.72c2.98 5.16 57.02-38.65 59.5-34.35 1 1.74-74.69 49.63-74.69 49.63 3.34 5.79 94.36-54.48 94.36-54.48 2.92 5.06-100.17 64.84-100.17 64.84.66 1.13 107.11-66.76 109.24-63.07 0 0-113.96 62.24-109.48 69.99 0 0 112.59-75.6 117.18-67.65 0 0-127.53 69.67-122.56 78.26 4.34 7.52 134.73-77.79 134.73-77.79 1.99 3.45-139.74 79.84-136.63 85.24.07.12 147.23-85 147.23-85 6.41 11.09-149.35 92.62-149.35 92.62l153.59-88.67c.32.56-155.98 96.58-155.98 96.58 2.07 3.58 158.2-104.88 164.07-94.72 1.56 2.69-165.68 92.08-161.04 100.11 0 0 164.02-104.11 168.09-97.05 8.11 14.05-171.04 91.58-165.16 101.77 4.83 8.37 166.38-103.63 169.66-97.95 6.48 11.23-169.71 105.22-169.71 105.22S224.41 22.83 230.91 34.08c1.49 2.58-172.4 106.68-172.4 106.68.24.42 183.62-106.01 183.62-106.01S52.59 133.63 60.3 146.99c8.88 15.39 182.51-109.52 184.3-106.41 0 0-191.24 110.04-188 115.64 7.06 12.23 188.68-110.93 189.54-109.43 5.01 8.68-184.08 111-182.88 113.07C66.82 166.03 244.2 41.5 250.22 51.92c8.21 14.22-188.75 103.65-183.59 112.6 4.04 7 187.13-117.44 191.2-110.39C265.6 67.59 58.5 159.36 65.98 172.31c0 0 188.93-118.61 193.06-111.46C264.51 70.32 57.45 168.4 64.49 180.6c2.88 5 193.62-128.31 200.78-115.92 2.07 3.59-199.86 111.87-195.22 119.89 3.88 6.73 188.77-130.45 198.07-114.35 3.6 6.23-201.34 116.16-198.11 121.75 0 0 199.38-123.52 203.02-117.21 7.1 12.29-193.78 118.6-193.78 118.6 4.78 8.28 185.88-120.25 191.48-110.55 2.73 4.72-193.45 101.26-185.94 114.27 3.17 5.5 187.55-108.28 187.55-108.28 1.15 1.98-196.79 101.68-188.55 115.95 0 0 193.24-122.5 197.97-114.3L86.19 209.9c.08.14 194.08-113.71 194.8-112.46 8.99 15.57-197.29 103.08-189.78 116.09 0 0 181.35-118.4 187.28-108.13 0 0-178.09 107.09-176.92 109.11 6.5 11.27 170.43-116.13 178.11-102.83l-173 106.68c6.74 11.68 178.84-106.75 180.35-104.13 4.33 7.49-184.23 96.28-176.74 109.25 1.23 2.13 168.97-110.39 174.53-100.76.39.68-167.5 103.24-167.5 103.24 8.26 14.31 155.05-107.05 162.64-93.9.66 1.15-160.91 99.98-160.91 99.98 3.62 6.27 157.32-102.5 162.37-93.75 3.98 6.9-159.75 86.34-153.97 96.36.5.86 148.18-95.85 152.64-88.13 6.7 11.61-144.47 82.39-141.07 88.29 5.66 9.81 142.06-82.02 142.06-82.02s-142.12 81.13-138.93 86.65c3.87 6.71 135.63-81.38 136.96-79.07.79 1.36-126.78 75.76-124.91 78.98 5.94 10.29 118.98-68.69 118.98-68.69 1.02 1.77-114.12 64.37-110.5 70.65 0 0 104.78-63.89 106.25-61.34l-95.87 61.85c2.83 4.9 88.1-50.87 88.1-50.87.45.78-70.16 45.81-69.51 46.95 1.13 1.95 66.01-38.11 66.01-38.11 1.11 1.93-48.38 31.76-47.19 33.82.13.22 25.97-17.62 27.11-15.65"></path><path fill="none" stroke="#141d2c" stroke-linecap="round" stroke-linejoin="round" d="M246.06 254.36c.15.26 7.31-4.22 7.31-4.22l-2.08 3.06c.46.79 4.06-3.22 4.44-2.56.16.28-11.56 8.56-11.56 8.56.5.86 19.2-11.09 19.2-11.09.57.98-18.9 13.3-18.9 13.3.09.16 17.55-10.85 17.86-10.31 0 0-14.06 8.95-13.48 9.95 0 0 11.92-8.34 12.55-7.25 0 0-14.15 9.69-13.56 10.71.55.96 17.34-10.01 17.34-10.01.24.42-16.71 10.51-16.32 11.17 0 .01 20.01-11.55 20.01-11.55.86 1.49-19.59 13.09-19.59 13.09l17.27-9.97c.04.06-17.27 11.87-17.27 11.87.19.34 18.39-11.89 18.94-10.94.13.23-13.31 9.28-12.91 9.97 0 0 12.67-8.01 12.97-7.49.4.7-7.79 5.62-7.49 6.13.25.43 5.29-3.45 5.46-3.15"></path><path fill="none" stroke="#94A3B8" stroke-linecap="round" stroke-linejoin="round" d="M24.41 29.87c.21.37 8.84-5.1 8.84-5.1l-5.02 4.76c.66 1.14 8.24-6.02 8.79-5.07.23.4-16.83 11.6-16.83 11.6.73 1.26 25.39-14.66 25.39-14.66.77 1.33-26.07 17.44-26.07 17.44.14.25 25.56-15.85 26.03-15.03 0 0-23.45 13.54-22.51 15.16 0 0 21.43-14.69 22.43-12.95 0 0-25.64 15.32-24.62 17.09.95 1.64 29.57-17.07 29.57-17.07.43.74-29.99 17.51-29.32 18.67.02.03 33.78-19.5 33.78-19.5 1.47 2.55-34.21 21.53-34.21 21.53L53.4 27.83c.07.12-33.78 21.41-33.78 21.41.42.73 35.31-23.15 36.51-21.08.32.55-33.19 19.5-32.24 21.13 0 0 33.23-21.07 34.05-19.66 1.51 2.61-31.48 17.45-30.39 19.34.94 1.63 29.54-18.53 30.18-17.42 1.15 1.99-29.41 19.6-29.41 19.6S53.77 33.63 55 35.75c.24.41-26.72 17.95-26.72 17.95.04.08 33.36-19.26 33.36-19.26S29.23 52.69 30.57 55.02c1.53 2.65 28.74-17.31 29.05-16.77 0 0-32.99 20.21-32.42 21.19 1.14 1.98 29.5-17.35 29.64-17.11.64 1.11-22.62 15.57-22.47 15.84.53.91 21.13-14.26 22.02-12.71S37.17 57.29 37.71 58.23s21.77-13.84 22.32-12.89c.94 1.63-23.19 14.09-22.29 15.66 0 0 18.33-11.68 18.81-10.86.56.97-19.73 12.53-19.01 13.78.25.43 19.32-12.57 19.93-11.51.13.23-11.61 8.58-11.31 9.09.14.24 6.74-4.66 7.07-4.08"></path><path fill="none" stroke="#1E293B" stroke-linecap="round" stroke-linejoin="round" d="M22.24 226.19c.29.49 10.69-6.17 10.69-6.17s-8.59 6.81-8.58 6.82c.9 1.55 13.26-9.38 14-8.08.31.54-23.08 15.21-23.08 15.21 1.01 1.74 32.66-18.86 32.66-18.86 1 1.74-34.41 22.25-34.41 22.25.2.35 34.77-21.6 35.43-20.46 0 0-34.1 18.76-32.76 21.08 0 0 32.12-21.83 33.54-19.36 0 0-38.27 21.51-36.77 24.11 1.38 2.38 42.77-24.69 42.77-24.69.63 1.09-44.12 24.95-43.14 26.65.02.04 48.21-27.83 48.21-27.83 2.11 3.65-49.25 30.21-49.25 30.21l48.42-27.95c.1.18-50.12 30.84-50.12 30.84.64 1.11 51.69-34.04 53.5-30.89.49.84-51.57 28.95-50.13 31.46 0 0 51.56-32.7 52.83-30.5 2.44 4.23-51.59 27.49-49.82 30.56 1.5 2.6 49.24-30.78 50.26-29.02 1.94 3.36-50.5 31.78-50.5 31.78s46.74-31.66 48.76-28.15c.43.75-49.82 31.29-49.82 31.29.08.13 57.46-33.18 57.46-33.18s-58.72 31.01-56.33 35.16c2.78 4.82 54.89-32.99 55.46-32.02 0 0-61.04 35.33-60 37.12 2.21 3.82 58.14-34.19 58.41-33.72 1.46 2.52-53.15 32.74-52.8 33.35 1.11 1.93 52.03-34.39 53.91-31.13 2.32 4.02-53.27 29.37-51.81 31.9 1.26 2.18 55.42-34.93 56.69-32.73 2.39 4.14-61.06 32.73-58.76 36.72 0 0 56.1-35.36 57.39-33.13 1.71 2.95-62.66 33.91-60.47 37.72.89 1.55 62.06-40.95 64.28-37.11.64 1.11-61.95 35-60.51 37.5 1.2 2.08 58.26-40.26 61.13-35.29 1.15 1.99-64.14 37.4-63.11 39.18 0 0 64.83-40.01 65.95-38.08 2.16 3.74-58.87 36.09-58.87 36.09 1.46 2.52 53.01-34.55 54.72-31.59.76 1.31-53.58 28.41-51.5 32.03.96 1.67 51.41-29.68 51.41-29.68.33.58-57.29 29.99-54.88 34.16 0 0 61.35-38.7 62.77-36.24l-63.08 38.33s60.78-35.59 61-35.22c2.79 4.83-61.21 31.86-58.88 35.89 0 0 53.51-34.96 55.27-31.91 0 0-48.26 29.47-47.95 30.02 1.91 3.31 45.92-31.72 48.18-27.81l-46.33 28.93c1.96 3.39 52.51-31.33 52.95-30.57 1.3 2.24-54.98 29.16-52.74 33.04.35.61 48.36-31.57 49.94-28.83.11.19-46.63 28.84-46.63 28.84 2.32 4.02 39.37-27.66 41.5-23.96.18.31-43.63 27.65-43.63 27.65.99 1.71 43.59-28.35 44.96-25.96 1.06 1.83-42.08 23.59-40.54 26.25.13.22 38.05-24.63 39.2-22.63 1.53 2.66-32.76 19.34-31.98 20.69 1.38 2.39 33.32-19.24 33.32-19.24s-35.76 20.61-34.96 22c.89 1.54 33.42-20 33.73-19.47.17.29-26.8 16.8-26.4 17.49 1.17 2.03 21.18-12.23 21.18-12.23.16.28-17.35 10.94-16.79 11.93 0 0 12.42-7.6 12.6-7.28"></path></svg>