<svg xmlns="http://www.w3.org/2000/svg" width="128" viewBox="0 0 300 300"><path fill="#7e8a9b" d="M269.49 113.03c-17.8 0-27.2-8.65-34.06-14.96-5.68-5.23-7.94-7.04-13.74-7.04s-8.06 1.81-13.74 7.04c-6.86 6.31-16.26 14.96-34.06 14.96s-27.2-8.65-34.06-14.96c-5.68-5.23-7.94-7.04-13.74-7.04s-8.06 1.81-13.74 7.04c-6.86 6.32-16.25 14.96-34.06 14.96s-27.2-8.65-34.06-14.96c-5.68-5.23-7.94-7.04-13.74-7.04v-30c17.8 0 27.2 8.65 34.06 14.96 5.68 5.23 7.94 7.04 13.74 7.04s8.06-1.81 13.74-7.04c6.86-6.32 16.25-14.96 34.06-14.96s27.2 8.65 34.06 14.96c5.68 5.23 7.94 7.04 13.74 7.04s8.06-1.81 13.74-7.04c6.86-6.32 16.26-14.96 34.06-14.96s27.2 8.65 34.06 14.96c5.68 5.23 7.94 7.04 13.74 7.04v30z"></path><path fill="#475363" d="M269.49 176c-17.8 0-27.2-8.65-34.06-14.96-5.68-5.23-7.94-7.04-13.74-7.04s-8.06 1.81-13.74 7.04c-6.86 6.31-16.26 14.96-34.06 14.96s-27.2-8.65-34.06-14.96c-5.68-5.23-7.94-7.04-13.74-7.04s-8.06 1.81-13.74 7.04C105.49 167.36 96.1 176 78.29 176s-27.2-8.65-34.06-14.96c-5.68-5.23-7.94-7.04-13.74-7.04v-30c17.8 0 27.2 8.65 34.06 14.96 5.68 5.23 7.94 7.04 13.74 7.04s8.06-1.81 13.74-7.04c6.86-6.32 16.25-14.96 34.06-14.96s27.2 8.65 34.06 14.96c5.68 5.23 7.94 7.04 13.74 7.04s8.06-1.81 13.74-7.04c6.86-6.32 16.26-14.96 34.06-14.96s27.2 8.65 34.06 14.96c5.68 5.23 7.94 7.04 13.74 7.04v30z"></path><path fill="#CBD5E1" d="M269.49 238.97c-17.8 0-27.2-8.65-34.06-14.96-5.68-5.23-7.94-7.04-13.74-7.04s-8.06 1.81-13.74 7.04c-6.86 6.31-16.26 14.96-34.06 14.96s-27.2-8.65-34.06-14.96c-5.68-5.23-7.94-7.04-13.74-7.04s-8.06 1.81-13.74 7.04c-6.86 6.32-16.25 14.96-34.06 14.96s-27.2-8.65-34.06-14.96c-5.68-5.23-7.94-7.04-13.74-7.04v-30c17.8 0 27.2 8.65 34.06 14.96 5.68 5.23 7.94 7.04 13.74 7.04s8.06-1.81 13.74-7.04c6.86-6.32 16.25-14.96 34.06-14.96s27.2 8.65 34.06 14.96c5.68 5.23 7.94 7.04 13.74 7.04s8.06-1.81 13.74-7.04c6.86-6.32 16.26-14.96 34.06-14.96s27.2 8.65 34.06 14.96c5.68 5.23 7.94 7.04 13.74 7.04v30z"></path></svg>